<?xml version="1.0" encoding="utf-8"?>
<!-- Generator: Adobe Illustrator 25.0.0, SVG Export Plug-In . SVG Version: 6.00 Build 0)  -->
<svg version="1.1" id="Layer_1" xmlns="http://www.w3.org/2000/svg" xmlns:xlink="http://www.w3.org/1999/xlink" x="0px" y="0px"
	 viewBox="0 0 562 361" style="enable-background:new 0 0 562 361;" xml:space="preserve">
<style type="text/css">
	.st0{fill:none;stroke:#FFFFFF;stroke-width:0.75;stroke-miterlimit:10;}
	.st1{fill:#58595B;}
	.st2{font-family:'MSReferenceSansSerif';}
	.st3{font-size:17.2282px;}
	.st4{fill:none;stroke:#00FF26;stroke-width:0.5;stroke-miterlimit:10;}
	.st5{fill:none;stroke:#FF00D9;stroke-width:0.5;stroke-miterlimit:10;}
	.st6{fill:#00FF26;}
	.st7{fill:#FF2600;}
	.st8{fill:#211F77;}
	.st9{font-size:18.2338px;}
	.st10{font-size:11px;}
</style>
<g>
	<g>
		<g>
			<g>
				<rect x="48.92" y="60.64" class="st0" width="482.08" height="227.19"/>
				<line class="st0" x1="48.92" y1="249.97" x2="531" y2="249.97"/>
				<line class="st0" x1="48.92" y1="212.1" x2="531" y2="212.1"/>
				<line class="st0" x1="48.92" y1="174.23" x2="531" y2="174.23"/>
				<line class="st0" x1="48.92" y1="136.37" x2="531" y2="136.37"/>
				<line class="st0" x1="48.92" y1="98.5" x2="531" y2="98.5"/>
			</g>
			<text transform="matrix(1 0 0 1 34.5332 294.2656)" class="st1 st2 st3">0</text>
			<text transform="matrix(1 0 0 1 23.7427 256.3359)" class="st1 st2 st3">10</text>
			<text transform="matrix(1 0 0 1 23.7427 218.4043)" class="st1 st2 st3">20</text>
			<text transform="matrix(1 0 0 1 23.7427 180.4746)" class="st1 st2 st3">30</text>
			<text transform="matrix(1 0 0 1 23.7427 142.543)" class="st1 st2 st3">40</text>
			<text transform="matrix(1 0 0 1 23.7427 104.6133)" class="st1 st2 st3">50</text>
			<text transform="matrix(1 0 0 1 23.7427 66.6816)" class="st1 st2 st3">60</text>
		</g>
		<g>
			<polyline class="st4" points="104.69,176.7 232.92,225.01 361.15,124.82 486.58,211.65 			"/>
			<polyline class="st5" points="104.69,287.53 232.92,178.37 361.15,232.14 489.39,103.92 			"/>
			<circle class="st6" cx="104.69" cy="287.53" r="8.55"/>
			<circle class="st7" cx="104.69" cy="176.7" r="8.55"/>
			<circle class="st7" cx="232.92" cy="225.01" r="8.55"/>
			<circle class="st7" cx="361.15" cy="124.82" r="8.55"/>
			<path class="st7" d="M495.12,211.65c0,4.72-3.83,8.55-8.55,8.55c-4.72,0-8.55-3.83-8.55-8.55s3.83-8.55,8.55-8.55
				C491.3,203.11,495.12,206.93,495.12,211.65z"/>
			<circle class="st6" cx="232.92" cy="178.37" r="8.55"/>
			<circle class="st6" cx="361.15" cy="232.14" r="8.55"/>
			<path class="st6" d="M495.12,103.92c0,4.72-3.83,8.55-8.55,8.55c-4.72,0-8.55-3.83-8.55-8.55s3.83-8.55,8.55-8.55
				C491.3,95.37,495.12,99.19,495.12,103.92z"/>
		</g>
	</g>
	<g>
		<text transform="matrix(1 0 0 1 21.8413 30.9355)" class="st8 st2 st9">BITCOIN/NIGERIAN NAIRA CONVETER</text>
	</g>
</g>
<g>
	<g>
		<text transform="matrix(1 0 0 1 187.04 339.7637)" class="st8 st2 st10">BITCOIN</text>
	</g>
	<g>
		<text transform="matrix(1 0 0 1 301.418 339.7637)" class="st8 st2 st10">NIGERIAN NAIRA</text>
	</g>
	<circle class="st6" cx="173.35" cy="336.5" r="8.55"/>
	<circle class="st7" cx="289.35" cy="336.5" r="8.55"/>
</g>
</svg>
